<?xml version="1.0" encoding="UTF-8"?>
<svg width="200px" height="200px" viewBox="0 0 200 200" version="1.1" xmlns="http://www.w3.org/2000/svg" xmlns:xlink="http://www.w3.org/1999/xlink">
    <!-- Generator: Sketch 52.2 (67145) - http://www.bohemiancoding.com/sketch -->
    <title>切片</title>
    <desc>Created with Sketch.</desc>
    <g id="Page-1" stroke="none" stroke-width="1" fill="none" fill-rule="evenodd">
        <g id="分组-5" transform="translate(45.000000, 24.000000)">
            <g id="Group-28" transform="translate(11.000000, 0.000000)">
                <g id="Group-23">
                    <g id="Group-22" fill="#4188FF">
                        <rect id="Rectangle-63" x="0" y="0" width="26.9677419" height="26.9677419"></rect>
                        <rect id="Rectangle-63" x="0" y="32.6451613" width="26.9677419" height="55.3548387"></rect>
                        <rect id="Rectangle-63" x="0" y="32.6451613" width="47.5483871" height="21.2903226"></rect>
                    </g>
                    <g id="Group-21" transform="translate(64.166667, 44.000000) scale(-1, 1) translate(-64.166667, -44.000000) translate(40.333333, 0.000000)" fill="#FF9B1B">
                        <rect id="Rectangle-63" x="0" y="0" width="26.9677419" height="26.9677419"></rect>
                        <rect id="Rectangle-63" x="0" y="32.6451613" width="26.9677419" height="55.3548387"></rect>
                        <rect id="Rectangle-63" x="0" y="38.3225806" width="47.5483871" height="21.2903226"></rect>
                    </g>
                </g>
            </g>
            <g id="分组-4" transform="translate(0.000000, 116.000000)" fill="#444444">
                <path d="M0.889690376,8.30311781 L0.889690376,8.30311781 C0.889690376,7.4022867 1.61995828,6.67201879 2.5207894,6.67201879 L12.9169862,6.67201879 L12.9169862,6.30955234 C12.9169862,5.69445468 12.1920605,5.38691047 10.7421875,5.38691047 L2.02651697,5.38691047 C1.05289142,5.38691047 0.263611963,4.59763101 0.263611963,3.62400546 L0.263611963,3.62400546 C0.263611963,2.65037991 1.05289142,1.86110046 2.02651697,1.86110046 L8.46721626,1.86110046 C13.6340107,-0.173875891 17.9260853,-0.173875891 22.6389954,1.86110046 L29.2115007,1.86110046 C30.1851262,1.86110046 30.9744057,2.65037991 30.9744057,3.62400546 L30.9744057,3.62400546 C30.9744057,4.59763101 30.1851262,5.38691047 29.2115007,5.38691047 L19.6390913,5.38691047 C18.9293455,5.38691047 18.3539829,5.96227306 18.3539829,6.67201879 L28.7172282,6.67201879 C29.6180594,6.67201879 30.3483273,7.4022867 30.3483273,8.30311781 L30.3483273,8.30311781 C30.3483273,9.20394893 29.6180594,9.93421683 28.7172282,9.93421683 L2.5207894,9.93421683 C1.61995828,9.93421683 0.889690376,9.20394893 0.889690376,8.30311781 Z M-5.68434189e-14,21.5166675 L-5.68434189e-14,21.5166675 C-5.77538376e-14,20.6158364 0.730267907,19.8855684 1.63109902,19.8855684 L5.40404525,19.8855684 L4.25074291,18.3368482 L4.25074291,18.3368482 C2.33988903,18.3368482 0.79083589,16.787795 0.79083589,14.8769411 L0.79083589,14.6627564 C0.79083589,12.6336116 2.43578279,10.9886647 4.46492763,10.9886647 L26.6741986,10.9886647 C28.7060235,10.9886647 30.3556918,12.6309519 30.364803,14.6627564 L30.3648771,14.6792689 C30.3738949,16.6902561 28.7509782,18.3277937 26.7399911,18.3368115 C26.7345483,18.336836 26.7291056,18.3368482 26.7236628,18.3368482 L25.405603,19.8855684 L29.4751126,19.8855684 C30.3759437,19.8855684 31.1062117,20.6158364 31.1062117,21.5166675 L31.1062117,21.5166675 C31.1062117,22.4174986 30.3759437,23.1477665 29.4751126,23.1477665 L1.63109902,23.1477665 C0.730267907,23.1477665 -5.67330989e-14,22.4174986 -5.68434189e-14,21.5166675 Z M19.457199,18.3368482 L11.5172067,18.3368482 C10.6618721,18.3368482 9.96848639,19.0302338 9.96848639,19.8855684 L21.0059193,19.8855684 L21.0059193,19.8855684 C21.0059193,19.0302338 20.3125336,18.3368482 19.457199,18.3368482 Z M23.1649013,14.0202023 L7.38113497,14.0202023 C6.67138924,14.0202023 6.09602665,14.5955649 6.09602665,15.3053106 L25.0431365,15.3053106 L25.0431365,14.9428441 C25.0431365,14.3277465 24.4170644,14.0202023 23.1649013,14.0202023 Z M4.87682132,24.2022143 L26.7236628,24.2022143 C29.1840534,24.2022143 30.4142303,21.8736304 30.4142303,24.2022143 L30.4142303,24.2022143 C30.4323499,28.3697352 27.0685956,31.7628673 22.9010747,31.780987 C22.8901386,31.7810345 22.8792024,31.7810583 22.8682662,31.7810583 L8.30377684,31.7810583 C4.11809691,31.7810583 0.724932899,28.3878943 0.724932899,24.2022143 C0.724932899,21.807727 2.10888187,24.2022143 4.87682132,24.2022143 Z M23.1649013,27.2008004 L7.71064992,27.2008004 C6.85531533,27.2008004 6.16192964,27.8941861 6.16192964,28.7495207 L24.9772335,28.7495207 L24.9772335,28.2881998 C24.9772335,27.5632632 24.3731288,27.2008004 23.1649013,27.2008004 Z" id="喜"></path>
                <path d="M54.5785716,0.672291509 L54.5785716,0.672291509 C56.0799568,0.672291509 57.2970699,1.88940469 57.2970699,3.39078988 L57.2970699,28.5822081 C57.2751022,29.3291124 56.9895254,30.0320706 56.4403311,30.6911038 C55.8032656,31.4160403 54.9904702,31.7785032 54.0019204,31.7785032 L47.5777813,31.7785032 C46.7351384,31.7785032 46.0520413,31.0954061 46.0520413,30.2527632 C46.0520413,30.0543412 46.0907449,29.8578244 46.1659842,29.6742207 L46.1659842,29.6742207 C46.6876018,28.4013354 47.9267987,27.5699382 49.3024155,27.5699382 L49.7997339,27.5699382 C51.3167592,27.5699382 52.5465512,26.3401462 52.5465512,24.8231208 C52.5465512,24.8093698 52.5464479,24.7956189 52.5462414,24.7818693 C52.4723519,19.8639069 52.243637,15.9643313 51.8600732,13.0831427 C51.4949307,10.340328 51.423845,7.12337509 51.6468161,3.43228406 L51.646822,3.43228442 C51.7404849,1.88177839 53.0252391,0.672291509 54.5785716,0.672291509 Z M43.7704811,3.83563507 L43.7704811,3.83563507 C45.0378053,3.83563507 46.0651745,4.86300431 46.0651745,6.13032849 C46.0651745,6.1819105 46.0634352,6.23347784 46.0599597,6.28494263 L44.8604743,24.0465538 C44.6639331,26.9568756 42.2553965,29.2226591 39.3385049,29.241238 C38.4417359,29.5390679 38.6727137,26.5710039 40.0314382,20.3370462 C41.1698061,15.1141054 41.6548941,10.4060317 41.4867023,6.21282509 L41.4867311,6.21282393 C41.4361404,4.95154364 42.4175983,3.8880621 43.6788786,3.83747144 C43.7093974,3.83624732 43.7399377,3.83563507 43.7704811,3.83563507 Z M67.7056072,6.18574744 C67.4166096,10.2031197 67.9804978,14.2990391 69.3972718,18.4735057 C70.4327463,21.5244888 70.9657541,24.0515604 70.996295,26.0547205 L70.9963297,26.05472 C71.0227553,27.7879583 69.6391103,29.2144477 67.905872,29.2408733 C67.8899239,29.2411164 67.8739742,29.241238 67.8580242,29.241238 L67.8580242,29.241238 C66.3945727,29.241238 65.1740885,28.1222144 65.0473919,26.6642575 L63.2761106,6.28130444 C63.1684918,5.04288464 64.0851871,3.95170471 65.3236069,3.84408587 C65.388408,3.83845465 65.4534227,3.83563507 65.518468,3.83563507 L65.518468,3.83563507 C66.7295049,3.83563507 67.7112442,4.81737441 67.7112442,6.02841126 C67.7112442,6.08090704 67.7093591,6.1333859 67.7055924,6.18574638 Z" id="小"></path>
                <path d="M89.6254314,17.9651768 L89.6254314,17.9651768 C89.6254314,19.0388946 88.755011,19.909315 87.6812931,19.909315 L85.9348639,19.909315 C84.952139,19.909315 84.1554831,19.1126591 84.1554831,18.1299342 C84.1554831,16.7239967 83.4525249,16.0210385 82.0465874,16.0210385 L80.4978671,16.0210385 C79.4605465,16.0210385 78.6196319,15.180124 78.6196319,14.1428033 L78.6196319,14.1428033 C78.6196319,13.1054826 79.4605465,12.264568 80.4978671,12.264568 L84.1554831,12.264568 C84.1554831,11.2101149 83.5403947,10.6828963 82.3101994,10.6828963 L80.7285276,10.6828963 C79.8549944,10.6828963 79.1468558,9.97475769 79.1468558,9.10122449 L79.1468558,9.10122449 C79.1468558,8.22769129 79.8549944,7.51955271 80.7285276,7.51955271 L84.1554831,7.51955271 C84.1554831,6.37722849 83.5184273,5.80607495 82.2442964,5.80607495 L80.8932851,5.80607495 C79.8559644,5.80607495 79.0150498,4.96516039 79.0150498,3.92783971 L79.0150498,3.92783971 C79.0150498,2.89051903 79.8559644,2.04960448 80.8932851,2.04960448 L82.2442964,2.04960448 C86.088065,-0.069506194 87.8789554,-0.069506194 91.4268663,2.04960448 L94.0953796,2.04960448 C94.6476644,2.04960448 95.0953796,2.49731973 95.0953796,3.04960448 L95.0953796,3.92783971 C95.0953796,4.96516039 94.254465,5.80607495 93.2171444,5.80607495 L91.3389091,5.80607495 C90.3925815,5.80607495 89.6254314,6.57322507 89.6254314,7.51955271 L93.1182899,7.51955271 C93.9918231,7.51955271 94.6999617,8.22769129 94.6999617,9.10122449 L94.6999617,9.10122449 C94.6999617,9.97475769 93.9918231,10.6828963 93.1182899,10.6828963 L91.2071031,10.6828963 C90.3335699,10.6828963 89.6254314,11.3910348 89.6254314,12.264568 L93.3489503,12.264568 C94.386271,12.264568 95.2271856,13.1054826 95.2271856,14.1428033 L95.2271856,14.1428033 C95.2271856,15.180124 94.386271,16.0210385 93.3489503,16.0210385 L91.5695696,16.0210385 C90.4958517,16.0210385 89.6254314,16.8914589 89.6254314,17.9651768 Z M97.6841891,0.625776774 C99.5531979,0.164246479 101.469266,0.251884109 103.432394,0.888689663 C104.719208,1.30611026 106.006519,1.47241501 107.294329,1.38760392 L107.294328,1.3875766 C108.551687,1.30477088 109.638106,2.25693501 109.720912,3.51429472 C109.724199,3.56420483 109.725844,3.61420953 109.725844,3.66422775 L109.725844,4.70161988 C109.725844,5.81668045 109.455314,6.91509429 108.937467,7.90261385 L108.937467,7.90261385 C108.42948,8.87133173 108.29315,9.99233866 108.554145,11.0545754 L109.725844,15.8233296 C109.594037,17.5368159 108.341893,18.3935462 105.969373,18.3935462 L103.871933,18.3935462 C103.319648,18.3935462 102.871933,17.9458309 102.871933,17.3935462 L102.871933,15.1642996 C102.871933,14.727533 103.226002,14.3734638 103.662768,14.3734638 L103.662768,14.3734638 C104.099535,14.3734638 104.453604,14.0193945 104.453604,13.5826279 L104.453604,6.39920187 C104.453604,5.5984631 103.804477,4.94933607 103.003738,4.94933607 L103.003738,4.94933607 C101.986118,4.94933607 101.161173,5.77428066 101.161173,6.79190139 C101.161173,6.80227997 101.161261,6.81265836 101.161436,6.82303545 C101.17566,7.66688843 101.306484,8.76678335 101.553873,10.1227208 C101.8328,11.6515246 101.963548,13.2392264 101.946117,14.8858262 L101.9461,14.885826 C101.919731,17.3767068 99.8930046,19.3820911 97.4019843,19.3820911 L97.4019843,19.3820911 C97.4019843,20.0736382 97.962594,20.6342479 98.6541411,20.6342479 L103.563914,20.6342479 C106.967054,20.6342479 109.725844,23.3930378 109.725844,26.7961775 L109.725844,29.2016367 C109.725844,30.5197031 108.913048,31.1787264 107.287433,31.1787264 L107.287433,31.1787264 C105.649558,31.1787264 104.321798,29.8509666 104.321798,28.2130918 L104.321798,26.895032 C104.321798,25.445159 103.509003,24.7202333 101.883388,24.7202333 L101.026649,24.7202333 C99.0248018,24.7202333 97.4019843,26.3430509 97.4019843,28.3448978 L97.4019843,29.2675397 C97.4019843,30.7598256 96.1922475,31.9695623 94.6999617,31.9695623 L94.6999617,31.9695623 C93.2076758,31.9695623 91.997939,30.7598256 91.997939,29.2675397 L91.997939,27.158644 C91.997939,25.5330287 91.1412087,24.7202333 89.4277224,24.7202333 L87.8790021,24.7202333 C86.1501343,24.7202333 84.74861,26.1217576 84.74861,27.8506254 L84.74861,29.9810174 C84.74861,30.5333022 84.3008948,30.9810174 83.74861,30.9810174 L82.2113449,30.9810174 C80.8100521,30.9810174 79.6740798,29.8450451 79.6740798,28.4437523 L79.6740798,20.6342479 C79.454402,17.9981151 80.7724487,20.6342479 83.6282592,20.6342479 L90.6798792,20.6342479 C91.4078236,20.6342479 91.997939,20.0441324 91.997939,19.3161881 L91.997939,19.3161881 C91.997939,18.5066557 92.5726303,17.8110951 93.3676348,17.6584173 C94.8808213,17.3677911 95.9839617,17.4810358 96.6770514,17.9981282 C97.6436286,17.5994152 97.6436286,15.0779667 96.6770514,10.433783 C95.8940607,6.67169053 95.7453436,3.87816281 96.2309002,2.0531998 L96.2309153,2.05320382 C96.4185823,1.3478582 96.9755897,0.800757278 97.6841891,0.625776774 Z" id="帮"></path>
            </g>
        </g>
    </g>
</svg>